<?xml version="1.0" encoding="iso-8859-1"?>
<!-- Uploaded to: SVG Repo, www.svgrepo.com, Generator: SVG Repo Mixer Tools -->
<!DOCTYPE svg PUBLIC "-//W3C//DTD SVG 1.1//EN" "http://www.w3.org/Graphics/SVG/1.1/DTD/svg11.dtd">
<svg fill="#000000" height="800px" width="800px" version="1.1" id="Capa_1" xmlns="http://www.w3.org/2000/svg" xmlns:xlink="http://www.w3.org/1999/xlink" 
	 viewBox="0 0 201.283 201.283" xml:space="preserve">
<path d="M95.91,200.153c-0.835,0-1.613-0.526-1.895-1.361c-0.381-1.131-9.29-27.938-4.484-49.897
	c4.645-21.224,15.798-33.301,17.011-34.563c0.406-2.533,1.104-5.229,2.233-7.954c0.103-0.248,0.206-0.496,0.311-0.742
	c-0.188,0.19-0.377,0.381-0.567,0.571c-3.293,3.293-6.929,5.566-10.214,7.126c-1.793,2.511-11.351,16.669-13.496,35.882
	c-0.555,4.966-0.587,10.203-0.308,15.328c0.051,0.565,0.087,1.146,0.106,1.741c1.116,16.384,5.207,31.13,5.263,31.328
	c0.299,1.063-0.321,2.167-1.384,2.466c-1.065,0.305-2.168-0.32-2.467-1.383c-0.242-0.86-4.656-16.76-5.544-34.199
	c-1.085-9.982-7.819-14.584-10.055-15.846c-2.058,2.434-5.914,5.932-11.881,7.364c-8.243,1.98-17.708-0.586-28.138-7.625
	C2.174,129.338,0.079,100.255,0.004,99.026c-0.056-0.904,0.503-1.732,1.363-2.02c1.168-0.389,28.924-9.324,57.148,9.724
	c10.431,7.041,16.351,14.861,17.598,23.244c1.116,7.504-1.9,13.193-3.347,15.414c1.76,1.05,5.052,3.391,7.72,7.43
	c0.083-1.359,0.196-2.711,0.345-4.047c1.663-14.89,7.402-26.688,11.171-33.065c-2.289,0.651-3.813,0.857-3.98,0.879
	c-0.618,0.084-1.23-0.131-1.669-0.569c-0.438-0.438-0.648-1.055-0.57-1.669c0.061-0.474,1.592-11.709,10.379-20.496
	c0.19-0.19,0.381-0.38,0.572-0.568c-0.247,0.104-0.495,0.209-0.744,0.312c-11.481,4.754-22.447,1.869-22.907,1.746
	c-0.598-0.163-1.087-0.593-1.324-1.165c-0.237-0.572-0.196-1.223,0.112-1.76c0.238-0.415,5.951-10.21,17.432-14.965
	c0.249-0.104,0.498-0.205,0.746-0.306c-0.268,0.002-0.537,0.003-0.806,0.003c-12.427,0-21.453-6.862-21.832-7.154
	c-0.49-0.379-0.777-0.964-0.777-1.583s0.287-1.204,0.777-1.583c0.378-0.292,9.405-7.153,21.832-7.153
	c0.27,0,0.538,0.001,0.806,0.003c-0.248-0.101-0.497-0.202-0.746-0.306C77.823,54.614,72.11,44.82,71.872,44.405
	c-0.308-0.537-0.35-1.188-0.112-1.76c0.237-0.572,0.726-1.002,1.324-1.164c0.461-0.125,11.427-3.013,22.907,1.744
	c0.249,0.104,0.497,0.207,0.744,0.312c-0.191-0.188-0.382-0.378-0.573-0.568c-8.787-8.787-10.317-20.021-10.378-20.495
	c-0.079-0.614,0.131-1.231,0.57-1.669c0.438-0.438,1.05-0.65,1.669-0.569c0.474,0.061,11.709,1.591,20.496,10.378
	c0.19,0.19,0.38,0.381,0.567,0.571c-0.104-0.246-0.208-0.494-0.311-0.742c-4.756-11.481-1.87-22.446-1.744-22.907
	c0.162-0.599,0.592-1.087,1.164-1.324s1.222-0.196,1.76,0.112c0.415,0.237,10.209,5.951,14.964,17.432
	c0.104,0.249,0.205,0.498,0.306,0.746c-0.002-0.269-0.003-0.537-0.003-0.807c0-12.427,6.862-21.453,7.154-21.831
	c0.758-0.98,2.408-0.98,3.166,0c0.292,0.378,7.154,9.404,7.154,21.831c0,0.27-0.001,0.538-0.003,0.807
	c0.101-0.248,0.202-0.497,0.306-0.746c4.755-11.48,14.549-17.194,14.964-17.432c0.538-0.309,1.188-0.349,1.76-0.112
	c0.572,0.237,1.002,0.726,1.164,1.324c0.126,0.461,3.012,11.426-1.744,22.907c-0.103,0.248-0.207,0.496-0.311,0.743
	c0.188-0.191,0.377-0.382,0.566-0.572c8.788-8.787,20.023-10.317,20.497-10.378c0.612-0.081,1.231,0.13,1.669,0.569
	c0.438,0.438,0.648,1.055,0.569,1.669c-0.061,0.474-1.592,11.709-10.379,20.495c-0.19,0.19-0.381,0.38-0.572,0.568
	c0.247-0.104,0.495-0.208,0.744-0.312c11.479-4.756,22.446-1.87,22.907-1.744c0.599,0.162,1.087,0.592,1.324,1.164
	s0.195,1.223-0.112,1.76c-0.237,0.415-5.951,10.209-17.432,14.965c-0.249,0.104-0.498,0.205-0.746,0.306
	c0.268-0.002,0.536-0.003,0.806-0.003c12.427,0,21.454,6.861,21.832,7.153c0.49,0.379,0.777,0.964,0.777,1.583
	s-0.287,1.204-0.777,1.583c-0.378,0.292-9.404,7.154-21.832,7.154c-0.27,0-0.538-0.001-0.806-0.003
	c0.248,0.101,0.497,0.202,0.746,0.306c11.48,4.755,17.194,14.55,17.432,14.965c0.308,0.537,0.35,1.188,0.112,1.76
	s-0.726,1.002-1.324,1.165c-0.462,0.123-11.426,3.011-22.907-1.746c-0.249-0.104-0.497-0.207-0.744-0.312
	c0.19,0.188,0.382,0.378,0.572,0.568c8.787,8.786,10.318,20.022,10.379,20.496c0.079,0.614-0.131,1.23-0.569,1.669
	c-0.438,0.438-1.058,0.65-1.669,0.569c-0.474-0.061-11.709-1.591-20.496-10.378c-0.19-0.19-0.38-0.381-0.567-0.572
	c0.104,0.247,0.208,0.495,0.311,0.743c4.756,11.481,1.87,22.446,1.744,22.907c-0.162,0.599-0.592,1.087-1.164,1.324
	c-0.573,0.235-1.222,0.195-1.76-0.112c-0.415-0.237-10.209-5.951-14.964-17.432c-0.104-0.249-0.205-0.498-0.306-0.746
	c0.002,0.269,0.003,0.537,0.003,0.807c0,12.427-6.862,21.453-7.154,21.831c-0.758,0.98-2.408,0.98-3.166,0
	c-0.292-0.378-7.154-9.404-7.154-21.831c0-0.27,0.001-0.538,0.003-0.807c-0.101,0.248-0.202,0.497-0.306,0.746
	c-4.755,11.48-14.549,17.194-14.964,17.432c-0.538,0.308-1.187,0.349-1.76,0.112c-0.572-0.237-1.002-0.726-1.164-1.324
	c-0.066-0.242-0.899-3.402-0.976-8.018c-3.758,5.158-9.645,14.903-12.617,28.483c-4.571,20.887,4.277,47.496,4.367,47.763
	c0.353,1.047-0.209,2.182-1.255,2.534C96.338,200.119,96.122,200.153,95.91,200.153z M4.178,100.37
	c0.869,6.213,5.563,29.25,28.458,44.702c9.431,6.365,17.806,8.74,24.897,7.069c7.66-1.809,11.182-7.921,11.217-7.982
	c0.055-0.098,0.123-0.197,0.193-0.285c0.039-0.049,4.39-5.602,3.202-13.382c-1.1-7.203-6.438-14.082-15.869-20.447
	C33.33,94.56,10.261,98.841,4.178,100.37z M129.37,107.692c-0.099,1.765-0.148,3.585-0.148,5.434c0,7.49,2.861,13.678,4.733,16.925
	c1.872-3.257,4.741-9.465,4.741-16.925c0-1.849-0.05-3.669-0.148-5.434C135.536,108.041,132.381,108.041,129.37,107.692z
	 M114.691,102.937c-0.769,1.597-1.513,3.261-2.221,4.972c-2.866,6.92-2.591,13.731-2.104,17.447
	c2.976-2.292,8.001-6.93,10.856-13.822c0.708-1.709,1.357-3.408,1.941-5.074C120.183,105.612,117.341,104.422,114.691,102.937z
	 M144.752,106.459c0.584,1.666,1.233,3.365,1.941,5.074c2.853,6.888,7.873,11.523,10.851,13.818
	c0.482-3.727,0.755-10.556-2.098-17.443c-0.707-1.708-1.451-3.373-2.22-4.972C150.576,104.422,147.734,105.612,144.752,106.459z
	 M158.478,99.417c1.181,1.32,2.437,2.647,3.749,3.961c5.297,5.297,11.695,7.648,15.315,8.62c-0.979-3.626-3.341-10.045-8.616-15.32
	c-1.313-1.313-2.639-2.567-3.96-3.749C163.061,95.333,160.882,97.512,158.478,99.417z M102.951,92.929
	c-1.319,1.18-2.646,2.436-3.96,3.749c-5.271,5.271-7.633,11.685-8.614,15.313c3.628-0.98,10.041-3.342,15.313-8.613
	c1.31-1.31,2.564-2.636,3.749-3.961C107.036,97.512,104.856,95.332,102.951,92.929z M127.524,103.363c0.115,0,0.231,0.01,0.347,0.03
	c4.07,0.717,8.105,0.717,12.176,0c0.131-0.023,0.252-0.036,0.395-0.029c0.303-0.057,0.604-0.116,0.904-0.18
	c0.12-0.054,0.247-0.096,0.377-0.124c2.019-0.448,3.98-1.064,5.831-1.831c0,0,0,0,0.001,0c1.847-0.766,3.67-1.717,5.418-2.829
	c0.091-0.058,0.186-0.107,0.283-0.149c0.302-0.196,0.602-0.397,0.897-0.603c0.074-0.071,0.153-0.137,0.238-0.196
	c1.694-1.188,3.271-2.508,4.687-3.923c0,0,0,0,0-0.001c1.414-1.412,2.734-2.989,3.924-4.687c0.06-0.085,0.125-0.164,0.196-0.238
	c0.205-0.296,0.406-0.596,0.603-0.897c0.042-0.098,0.092-0.192,0.149-0.283c1.109-1.744,2.062-3.567,2.829-5.419
	c0.768-1.855,1.384-3.817,1.831-5.831c0.028-0.13,0.07-0.257,0.124-0.377c0.063-0.301,0.123-0.602,0.18-0.904
	c-0.004-0.132,0.006-0.264,0.029-0.395c0.358-2.035,0.54-4.083,0.54-6.088c0-2.004-0.182-4.052-0.54-6.088
	c-0.023-0.131-0.033-0.263-0.029-0.394c-0.057-0.303-0.116-0.604-0.18-0.904c-0.054-0.12-0.096-0.246-0.124-0.377
	c-0.447-2.015-1.063-3.977-1.831-5.832c-0.767-1.85-1.719-3.673-2.829-5.418c-0.058-0.091-0.108-0.187-0.15-0.284
	c-0.195-0.302-0.396-0.601-0.601-0.896c-0.071-0.074-0.138-0.154-0.197-0.239c-1.189-1.697-2.51-3.274-3.924-4.687
	c0-0.001,0-0.001,0-0.001c-1.419-1.419-2.995-2.738-4.686-3.923c-0.086-0.06-0.166-0.126-0.24-0.197
	c-0.298-0.206-0.597-0.406-0.9-0.604c-0.097-0.042-0.19-0.092-0.279-0.148c-1.745-1.11-3.568-2.062-5.418-2.828
	c-0.001,0-0.001,0-0.001,0c-1.849-0.766-3.811-1.383-5.832-1.832c-0.128-0.028-0.253-0.069-0.371-0.122
	c-0.302-0.063-0.604-0.124-0.909-0.181c-0.139,0.007-0.264-0.006-0.395-0.029c-4.07-0.717-8.105-0.717-12.176,0
	c-0.131,0.023-0.257,0.036-0.395,0.029c-0.304,0.057-0.607,0.117-0.909,0.181c-0.118,0.053-0.243,0.094-0.371,0.122
	c-2.021,0.45-3.983,1.066-5.831,1.832c0,0,0,0-0.001,0c-1.849,0.766-3.671,1.717-5.418,2.828c-0.09,0.058-0.185,0.107-0.281,0.149
	c-0.303,0.195-0.602,0.396-0.897,0.601c-0.074,0.072-0.155,0.14-0.241,0.199c-1.692,1.187-3.27,2.506-4.687,3.923
	c-1.416,1.416-2.736,2.993-3.924,4.688c-0.06,0.085-0.125,0.164-0.196,0.238c-0.205,0.296-0.405,0.595-0.603,0.898
	c-0.042,0.098-0.092,0.191-0.149,0.282c-1.111,1.746-2.063,3.569-2.828,5.419c-0.767,1.85-1.382,3.812-1.832,5.832
	c-0.029,0.129-0.07,0.255-0.123,0.374c-0.064,0.301-0.124,0.603-0.18,0.906c0.003,0.131-0.007,0.262-0.03,0.394
	c-0.358,2.038-0.54,4.087-0.54,6.088c0,2.002,0.182,4.05,0.54,6.088c0.023,0.131,0.033,0.264,0.03,0.395
	c0.056,0.303,0.116,0.606,0.18,0.907c0.053,0.119,0.094,0.244,0.123,0.373c0.449,2.021,1.065,3.982,1.832,5.832l0,0
	c0.767,1.852,1.718,3.674,2.828,5.419c0.058,0.09,0.107,0.185,0.149,0.281c0.196,0.303,0.398,0.604,0.604,0.901
	c0.07,0.073,0.136,0.152,0.195,0.236c1.188,1.694,2.508,3.271,3.924,4.688c1.414,1.414,2.991,2.733,4.688,3.923
	c0.085,0.061,0.166,0.127,0.24,0.198c0.295,0.204,0.592,0.403,0.894,0.6c0.099,0.042,0.194,0.092,0.285,0.15
	c1.75,1.113,3.572,2.065,5.418,2.829c0.001,0,0.001,0,0.001,0c1.85,0.767,3.811,1.383,5.83,1.831c0.13,0.028,0.256,0.07,0.377,0.124
	c0.3,0.063,0.602,0.123,0.904,0.18C127.493,103.363,127.508,103.363,127.524,103.363z M168.486,87.678
	c1.599,0.769,3.264,1.513,4.972,2.22c6.918,2.866,13.73,2.591,17.447,2.104c-2.292-2.977-6.93-8.002-13.822-10.857
	c-1.709-0.708-3.408-1.357-5.074-1.941C171.162,82.185,169.971,85.027,168.486,87.678z M77.009,91.995
	c3.726,0.485,10.559,0.758,17.451-2.098c1.71-0.708,3.375-1.452,4.971-2.22c-1.485-2.652-2.675-5.492-3.522-8.475
	c-1.667,0.584-3.366,1.233-5.075,1.941C83.914,84.011,79.292,89.023,77.009,91.995z M173.241,72.998
	c1.765,0.099,3.584,0.148,5.433,0.148c7.491,0,13.679-2.861,16.926-4.733c-3.257-1.872-9.465-4.74-16.926-4.74
	c-1.846,0-3.665,0.05-5.433,0.148c0.175,1.505,0.265,3.036,0.265,4.588S173.415,71.492,173.241,72.998z M72.319,68.405
	c3.256,1.872,9.464,4.741,16.925,4.741c1.849,0,3.668-0.05,5.433-0.148c-0.175-1.506-0.265-3.037-0.265-4.589
	s0.09-3.083,0.265-4.588c-1.768-0.099-3.587-0.148-5.433-0.148C81.753,63.673,75.566,66.533,72.319,68.405z M77.012,44.818
	c2.292,2.976,6.93,8.002,13.823,10.857c1.708,0.707,3.408,1.357,5.074,1.941c0.847-2.982,2.037-5.822,3.522-8.475
	c-1.59-0.766-3.255-1.509-4.971-2.221C87.54,44.057,80.728,44.329,77.012,44.818z M168.486,49.142
	c1.486,2.652,2.676,5.492,3.522,8.475c1.666-0.584,3.365-1.233,5.074-1.941c6.921-2.867,11.542-7.879,13.825-10.851
	c-3.724-0.483-10.559-0.759-17.45,2.097C171.743,47.632,170.079,48.375,168.486,49.142z M90.375,24.821
	c0.979,3.626,3.341,10.044,8.616,15.319c1.31,1.31,2.637,2.565,3.961,3.75c1.904-2.404,4.084-4.584,6.487-6.488
	c-1.182-1.322-2.437-2.648-3.749-3.961C100.393,28.145,93.995,25.793,90.375,24.821z M158.478,37.403
	c2.403,1.904,4.583,4.084,6.488,6.487c1.325-1.185,2.651-2.44,3.96-3.749c5.271-5.271,7.633-11.684,8.614-15.313
	c-3.628,0.98-10.041,3.342-15.313,8.613C160.911,34.758,159.656,36.085,158.478,37.403z M144.752,30.361
	c2.982,0.847,5.822,2.036,8.475,3.522c0.769-1.598,1.512-3.262,2.22-4.972c2.866-6.92,2.591-13.731,2.104-17.447
	c-2.976,2.292-8.001,6.93-10.856,13.822C145.987,26.994,145.336,28.694,144.752,30.361z M110.372,11.468
	c-0.482,3.727-0.755,10.556,2.098,17.443c0.709,1.712,1.452,3.376,2.221,4.972c2.651-1.485,5.493-2.676,8.474-3.522
	c-0.584-1.667-1.234-3.366-1.941-5.074C118.371,18.399,113.35,13.763,110.372,11.468z M133.962,6.77
	c-1.872,3.257-4.741,9.465-4.741,16.925c0,1.849,0.05,3.669,0.148,5.434c3.012-0.35,6.166-0.35,9.178,0
	c0.099-1.765,0.148-3.585,0.148-5.434C138.696,16.204,135.834,10.017,133.962,6.77z M64.68,141.956
	c-0.555,0-1.107-0.229-1.502-0.679c-0.053-0.061-3.833-4.331-9.799-9.566l-14.88,7.272c-0.992,0.482-2.191,0.074-2.675-0.919
	c-0.485-0.992-0.074-2.189,0.918-2.675l13.307-6.504c-1.617-1.324-3.346-2.672-5.165-3.996c-3.218-2.344-7.315-4.812-11.475-7.117
	l-8.757,4.851c-0.967,0.536-2.183,0.185-2.719-0.781c-0.535-0.966-0.186-2.184,0.78-2.719l6.516-3.608
	c-8.157-4.299-15.485-7.587-15.607-7.642c-1.008-0.451-1.46-1.634-1.009-2.643c0.451-1.008,1.635-1.457,2.642-1.01
	c0.681,0.305,13.696,6.147,24.517,12.583l-0.192-7.622c-0.028-1.104,0.845-2.022,1.949-2.05c1.107-0.034,2.022,0.844,2.05,1.948
	l0.258,10.244c1.201,0.781,2.343,1.561,3.401,2.331c3.719,2.709,7.047,5.48,9.838,7.978l-0.383-5.492
	c-0.077-1.102,0.754-2.057,1.856-2.134c1.1-0.07,2.058,0.754,2.134,1.855l0.682,9.78c2.931,2.861,4.667,4.824,4.815,4.993
	c0.729,0.829,0.648,2.093-0.181,2.822C65.62,141.792,65.149,141.956,64.68,141.956z M133.958,97.471
	c-16.024,0-29.061-13.037-29.061-29.062s13.036-29.061,29.061-29.061c16.024,0,29.061,13.036,29.061,29.061
	S149.983,97.471,133.958,97.471z M133.958,43.349c-13.818,0-25.061,11.242-25.061,25.061c0,13.819,11.242,25.062,25.061,25.062
	c13.818,0,25.061-11.242,25.061-25.062C159.019,54.591,147.777,43.349,133.958,43.349z"/>
</svg>